<svg width="75" height="75" viewBox="0 0 75 75" fill="none" xmlns="http://www.w3.org/2000/svg">
<circle cx="37.5" cy="37.5" r="37.5" fill="#F1F1F1"/>
<path d="M47.8018 49.1415V46.6689C47.8018 45.3574 47.2808 44.0996 46.3534 43.1723C45.426 42.2449 44.1682 41.7239 42.8567 41.7239H32.9666C31.655 41.7239 30.3972 42.2449 29.4699 43.1723C28.5425 44.0996 28.0215 45.3574 28.0215 46.6689V49.1415" stroke="#C055F2" stroke-width="3" stroke-linecap="round" stroke-linejoin="round"/>
<path d="M37.9119 36.7788C40.643 36.7788 42.8569 34.5648 42.8569 31.8337C42.8569 29.1026 40.643 26.8887 37.9119 26.8887C35.1808 26.8887 32.9668 29.1026 32.9668 31.8337C32.9668 34.5648 35.1808 36.7788 37.9119 36.7788Z" stroke="#C055F2" stroke-width="3" stroke-linecap="round" stroke-linejoin="round"/>
</svg>
