<svg width="21" height="25" viewBox="0 0 21 25" fill="none" xmlns="http://www.w3.org/2000/svg">
<path fill-rule="evenodd" clip-rule="evenodd" d="M14.2935 3.99113C15.1941 2.93488 15.8011 1.46374 15.635 0C14.3372 0.0500005 12.767 0.838941 11.8364 1.89394C11.0008 2.83018 10.2713 4.32616 10.4674 5.76116C11.9151 5.8699 13.3928 5.04861 14.2935 3.99113ZM17.5399 13.2814C17.5761 17.0651 20.9625 18.3238 21 18.34C20.9725 18.4288 20.4591 20.1335 19.2162 21.896C18.1408 23.4185 17.0253 24.9348 15.2678 24.9673C13.5415 24.9985 12.9856 23.9748 11.0107 23.9748C9.03713 23.9748 8.42006 24.9347 6.78621 24.9984C5.0899 25.0597 3.79705 23.3512 2.71406 21.8337C0.498114 18.73 -1.19445 13.0627 1.07896 9.23776C2.20817 7.33901 4.2255 6.13479 6.41647 6.10479C8.08155 6.07354 9.6542 7.19123 10.6722 7.19123C11.6903 7.19123 13.6014 5.84748 15.61 6.04498C16.4507 6.07873 18.8115 6.37363 20.3267 8.52486C20.2043 8.59861 17.5099 10.1189 17.5399 13.2814Z" fill="white"/>
</svg>
