<svg width="242" height="75" viewBox="0 0 242 75" fill="none" xmlns="http://www.w3.org/2000/svg">
<mask id="mask0_134_442" style="mask-type:luminance" maskUnits="userSpaceOnUse" x="-22" y="-33" width="304" height="142">
<path d="M281.819 -32.1782H-21.3939V108.815H281.819V-32.1782Z" fill="white"/>
</mask>
<g mask="url(#mask0_134_442)">
<path d="M157.451 45.6336C158.098 45.6336 158.719 45.8883 159.176 46.3416C159.634 46.7949 159.891 47.4097 159.891 48.0508V59.1675H161.945V64.03H160.533L159.041 62.3914H158.961C158.554 62.9073 158.032 63.3228 157.436 63.6053C156.84 63.8879 156.186 64.0297 155.525 64.0198H142.227V59.1675H153.841C153.991 59.1824 154.143 59.1613 154.283 59.106C154.424 59.0506 154.548 58.9626 154.647 58.8495C154.764 58.7517 154.858 58.6291 154.921 58.4909C154.984 58.3527 155.015 58.2022 155.012 58.0505V48.0508C155.012 47.4097 155.269 46.7949 155.726 46.3416C156.184 45.8883 156.804 45.6336 157.451 45.6336ZM151.14 66.9357C151.746 66.9358 152.334 67.1441 152.802 67.5253C153.271 67.9064 153.592 68.4368 153.711 69.0261C153.829 69.6154 153.738 70.2272 153.452 70.7572C153.167 71.2873 152.704 71.7029 152.144 71.9331C151.584 72.1634 150.961 72.1942 150.38 72.0202C149.8 71.8463 149.298 71.4783 148.961 70.979C148.624 70.4797 148.471 69.88 148.53 69.282C148.589 68.6839 148.855 68.1245 149.283 67.6991C149.523 67.4526 149.812 67.2577 150.131 67.1264C150.451 66.9951 150.794 66.9302 151.14 66.9357ZM157.269 66.9357C157.964 66.9357 158.631 67.2094 159.123 67.6966C159.614 68.1838 159.891 68.8446 159.891 69.5336C159.891 70.2226 159.614 70.8834 159.123 71.3706C158.631 71.8578 157.964 72.1315 157.269 72.1315C156.93 72.134 156.594 72.0676 156.281 71.9363C155.969 71.805 155.687 71.6117 155.454 71.3682C154.964 70.8796 154.689 70.2187 154.689 69.5298C154.689 68.841 154.964 68.1801 155.454 67.6914C155.688 67.4481 155.969 67.2548 156.282 67.1235C156.594 66.9922 156.93 66.9257 157.269 66.9281" fill="white"/>
<path d="M177.506 59.9309C176.856 59.1064 176.364 58.1718 176.052 57.1727C175.76 56.1867 175.611 55.1647 175.608 54.1372C175.608 51.7912 176.293 49.8328 177.662 48.262C179.408 46.1824 181.868 45.1425 185.042 45.1425C187.302 45.1425 189.185 45.7422 190.691 46.9415C192.333 48.3274 193.153 50.1933 193.151 52.5393V59.6154C193.159 60.6871 192.772 61.7248 192.062 62.5339C191.665 63.0078 191.165 63.3868 190.6 63.6428C190.034 63.8987 189.418 64.025 188.796 64.0122H161.665V59.1676L177.506 59.9309ZM188.234 52.552C188.253 52.0573 188.161 51.5646 187.966 51.109C187.771 50.6533 187.476 50.246 187.104 49.9159C186.517 49.4646 185.792 49.2249 185.05 49.2366C183.3 49.2366 182.036 49.9151 181.257 51.2721C180.744 52.1203 180.487 53.1991 180.487 54.5087C180.487 56.2949 181.052 57.6935 182.181 58.7045C183.092 59.5323 184.29 59.9453 185.776 59.9436H187.227C187.9 59.9436 188.236 59.6128 188.236 58.9462L188.234 52.552ZM185.055 36.84C185.399 36.8393 185.741 36.9061 186.059 37.0364C186.377 37.1667 186.667 37.358 186.91 37.5994C187.154 37.8408 187.347 38.1274 187.478 38.4429C187.61 38.7584 187.677 39.0965 187.677 39.4379C187.679 39.7739 187.611 40.1069 187.479 40.4162C187.346 40.7256 187.152 41.0048 186.906 41.2368C186.666 41.483 186.377 41.6778 186.058 41.8091C185.738 41.9404 185.395 42.0054 185.05 42.0001C184.368 41.9909 183.716 41.7182 183.234 41.2401C182.752 40.7619 182.478 40.1162 182.469 39.4404C182.464 39.0983 182.529 38.7587 182.662 38.4426C182.794 38.1266 182.991 37.841 183.239 37.6033C183.473 37.3599 183.755 37.1665 184.067 37.0352C184.38 36.9039 184.716 36.8375 185.055 36.84Z" fill="white"/>
<path d="M198.664 63.4015C198.43 63.1882 198.246 62.9261 198.126 62.6339C198.006 62.3418 197.953 62.0269 197.971 61.712V38.7229C197.953 38.4076 198.005 38.0922 198.125 37.7996C198.245 37.507 198.429 37.2444 198.664 37.0308C199.183 36.6019 199.846 36.3829 200.52 36.4176C201.194 36.3924 201.854 36.6103 202.377 37.0308C202.621 37.2376 202.814 37.4968 202.941 37.7887C203.068 38.0807 203.127 38.3976 203.111 38.7152V61.712C203.127 62.0296 203.068 62.3466 202.941 62.6385C202.814 62.9304 202.621 63.1897 202.377 63.3964C201.854 63.817 201.194 64.0349 200.52 64.0096C199.846 64.0443 199.183 63.8253 198.664 63.3964" fill="white"/>
<path d="M223.289 47.0127C221.836 45.9186 220.038 45.3724 217.897 45.3741C214.987 45.3741 212.687 46.2799 211 48.0916C209.358 49.7879 208.538 52.0126 208.54 54.7657C208.489 57.1202 209.258 59.4203 210.717 61.2794C212.491 63.4643 214.802 64.5575 217.65 64.5592C218.796 64.5531 219.936 64.3913 221.037 64.0783C220.701 67.7067 218.438 69.5769 214.392 69.7016H210.219C209.694 69.7016 209.19 69.9082 208.818 70.276C208.447 70.6438 208.237 71.1428 208.237 71.6633V71.788C208.237 72.046 208.288 72.3014 208.388 72.5397C208.487 72.7781 208.633 72.9946 208.817 73.177C209.001 73.3594 209.22 73.5041 209.46 73.6028C209.701 73.7015 209.959 73.7523 210.219 73.7523H214.602C214.689 73.7523 214.795 73.7523 214.859 73.7523C215.916 73.7625 216.971 73.6549 218.004 73.4317C219.738 73.0763 221.358 72.3077 222.724 71.1926C224.927 69.3555 226.03 66.7178 226.031 63.2794V52.7683C226.031 50.2357 225.117 48.3172 223.289 47.0127ZM221.111 59.9614C220.258 60.2703 219.357 60.4321 218.449 60.4398C216.891 60.4398 215.66 59.9402 214.756 58.9411C213.852 57.942 213.402 56.5756 213.406 54.842C213.406 53.1626 213.803 51.8429 214.597 50.8828C215.391 49.9227 216.487 49.4435 217.884 49.4452C218.629 49.4179 219.359 49.6593 219.938 50.1246C220.719 50.7369 221.109 51.6165 221.109 52.7632L221.111 59.9614Z" fill="white"/>
<path d="M239.379 43.7176C239.724 43.7228 240.066 43.6578 240.385 43.5265C240.704 43.3952 240.993 43.2004 241.232 42.9543C241.478 42.723 241.673 42.4443 241.806 42.1353C241.938 41.8263 242.005 41.4936 242.003 41.1579C242.003 40.8163 241.935 40.478 241.804 40.1624C241.672 39.8467 241.479 39.5599 241.235 39.3184C240.991 39.0768 240.702 38.8853 240.383 38.7547C240.065 38.6242 239.723 38.5571 239.379 38.5575C239.036 38.5512 238.695 38.6159 238.379 38.7473C238.063 38.8787 237.778 39.0741 237.543 39.3208C237.301 39.5625 237.11 39.8498 236.982 40.1658C236.854 40.4818 236.792 40.8201 236.798 41.1605C236.795 41.4954 236.86 41.8274 236.988 42.1374C237.116 42.4473 237.305 42.7289 237.544 42.9657C237.783 43.2025 238.067 43.3898 238.38 43.5167C238.693 43.6437 239.028 43.7076 239.366 43.7049" fill="white"/>
<path d="M239.379 47.3537C239.055 47.3537 238.735 47.4168 238.437 47.5395C238.138 47.6621 237.867 47.8419 237.638 48.0685C237.41 48.2951 237.229 48.5642 237.105 48.8602C236.982 49.1562 236.918 49.4735 236.919 49.7938V64.3404C236.919 68.7245 234.608 71.0145 230.242 71.2104H226.216C225.691 71.2104 225.188 71.4171 224.816 71.785C224.445 72.1529 224.236 72.6519 224.236 73.1722V73.2969C224.236 73.8174 224.445 74.3166 224.816 74.685C225.187 75.0533 225.691 75.2605 226.216 75.2612H230.666C231.587 75.2683 232.505 75.183 233.409 75.0067C235.56 74.5793 237.308 73.7668 238.652 72.5692C240.775 70.7321 241.837 68.1342 241.839 64.7755V49.7887C241.839 49.4684 241.775 49.1511 241.652 48.8551C241.529 48.5591 241.347 48.29 241.119 48.0634C240.89 47.8368 240.619 47.657 240.321 47.5344C240.022 47.4117 239.702 47.3486 239.379 47.3486" fill="white"/>
<path d="M125.819 62.7654C124.754 63.8748 123.261 64.4295 121.338 64.4295H105.344C103.478 64.4295 102.023 63.8943 100.978 62.8239C99.9341 61.7536 99.4137 60.2676 99.4171 58.3661V52.6105C99.4171 51.8166 99.5968 51.2085 99.9563 50.7861C100.148 50.5715 100.386 50.4029 100.653 50.2931C100.92 50.1834 101.208 50.1353 101.497 50.1526C101.781 50.1389 102.064 50.1908 102.325 50.3043C102.585 50.4178 102.815 50.5897 102.997 50.8065C103.383 51.3272 103.574 51.9653 103.536 52.6105V57.445C103.524 57.6778 103.563 57.9104 103.652 58.1264C103.741 58.3423 103.876 58.5362 104.049 58.6943C104.456 59.0165 104.968 59.1779 105.487 59.1472H111.047V50.1475C111.047 49.3553 111.226 48.748 111.586 48.3257C111.778 48.1115 112.016 47.9432 112.283 47.8335C112.549 47.7237 112.838 47.6754 113.126 47.6921C113.411 47.6778 113.694 47.7295 113.954 47.843C114.215 47.9565 114.445 48.1288 114.626 48.346C115.012 48.8657 115.203 49.503 115.165 50.1475V59.1676H121.328C121.848 59.1989 122.362 59.0375 122.768 58.7147C122.942 58.5569 123.078 58.363 123.166 58.147C123.255 57.931 123.295 57.6982 123.282 57.4653V48.4529C123.282 47.6607 123.462 47.0534 123.821 46.6311C124.013 46.4164 124.251 46.2478 124.518 46.1381C124.785 46.0283 125.073 45.9802 125.362 45.9975C125.646 45.984 125.929 46.036 126.189 46.1495C126.45 46.263 126.68 46.4348 126.861 46.6514C127.248 47.1711 127.439 47.8084 127.401 48.4529V58.0887C127.401 60.0954 126.867 61.6543 125.801 62.7654" fill="white"/>
<path d="M101.179 49.608C100.526 49.608 99.9005 49.8649 99.4392 50.322C98.9778 50.7791 98.7187 51.3991 98.7187 52.0456V62.2234C98.7187 66.6075 96.4077 68.895 92.0425 69.0934H88.0111C87.486 69.0934 86.9824 69.3001 86.6112 69.668C86.2399 70.0359 86.0313 70.5349 86.0313 71.0552V71.1799C86.0313 71.7002 86.2399 72.1992 86.6112 72.5671C86.9824 72.935 87.486 73.1417 88.0111 73.1417H92.461C93.3809 73.1539 94.2998 73.0738 95.2034 72.9025C97.3552 72.475 99.103 71.6625 100.447 70.4649C102.573 68.6261 103.636 66.0282 103.636 62.6712V52.0431C103.635 51.3964 103.376 50.7764 102.914 50.3193C102.452 49.8622 101.826 49.6055 101.173 49.6055" fill="white"/>
<path d="M76.1608 55.0811C76.4841 55.0808 76.8042 55.1436 77.103 55.266C77.4017 55.3883 77.6732 55.5678 77.9019 55.7942C78.1306 56.0206 78.312 56.2894 78.4358 56.5853C78.5596 56.8812 78.6233 57.1984 78.6233 57.5187V62.2209C78.6233 66.605 80.9343 68.8924 85.2995 69.0909H89.3309C89.8562 69.0909 90.36 69.2975 90.7317 69.6653C91.1034 70.0332 91.3126 70.5321 91.3132 71.0527V71.1773C91.3126 71.6979 91.1034 72.1968 90.7317 72.5647C90.36 72.9325 89.8562 73.1391 89.3309 73.1391H84.8733C83.9533 73.1511 83.0346 73.071 82.1309 72.8999C79.9808 72.4725 78.233 71.6599 76.8875 70.4624C74.7648 68.6236 73.7026 66.0257 73.7009 62.6687V57.5187C73.7009 56.8722 73.9601 56.2522 74.4214 55.7951C74.8827 55.338 75.5084 55.0811 76.1608 55.0811Z" fill="white"/>
<path d="M140.453 59.1675V48.0712C140.45 47.418 140.185 46.7925 139.717 46.3325C139.249 45.8725 138.616 45.6156 137.957 45.6183C137.298 45.621 136.666 45.8831 136.202 46.3469C135.738 46.8108 135.479 47.4383 135.481 48.0915V62.6382C135.481 65.8874 134.198 67.9815 131.779 68.9255C131.645 68.9738 131.507 69.012 131.368 69.0553C130.541 69.3187 129.681 69.4686 128.813 69.5005H124.782C124.256 69.5012 123.753 69.7085 123.381 70.0768C123.01 70.4451 122.802 70.9443 122.802 71.4649V71.5895C122.802 72.1098 123.01 72.6088 123.382 72.9767C123.753 73.3446 124.256 73.5513 124.782 73.5513H129.231C130.829 73.5864 132.419 73.3187 133.915 72.7625C133.948 72.7625 133.977 72.7345 134.01 72.7218C134.435 72.5667 134.85 72.3866 135.253 72.1824L135.394 72.1035C135.771 71.9036 136.134 71.6792 136.48 71.4318C136.511 71.4089 136.547 71.3936 136.578 71.3707C136.67 71.302 136.75 71.2257 136.835 71.157C136.919 71.0883 137.091 70.9738 137.21 70.872C137.256 70.8313 137.294 70.788 137.338 70.7473C137.425 70.6685 137.505 70.5845 137.595 70.4929C137.754 70.3402 137.911 70.185 138.057 70.0222C138.203 69.8593 138.278 69.7524 138.388 69.615C138.499 69.4776 138.576 69.381 138.663 69.2588C138.82 69.0375 138.958 68.8085 139.094 68.5744L139.174 68.4446C139.911 67.0738 140.334 65.5585 140.412 64.0071H148.033V59.1675H140.453Z" fill="white"/>
<path d="M178.746 59.1574H159.164V59.9411H178.746V59.1574Z" fill="white"/>
</g>
<mask id="mask1_134_442" style="mask-type:luminance" maskUnits="userSpaceOnUse" x="0" y="1" width="39" height="39">
<path d="M21.7113 3.48479L12 13.1537L2.28865 22.7946C1.6133 23.4661 1.12818 24.302 0.882056 25.2181C0.635928 26.1342 0.637453 27.0984 0.886478 28.0138C1.1355 28.9292 1.62326 29.7635 2.30073 30.4329C2.97821 31.1023 3.82154 31.5833 4.74601 31.8274L18.0394 35.3337L31.3327 38.8399C32.2569 39.0852 33.2301 39.0852 34.1543 38.8397C35.0785 38.5943 35.9213 38.1121 36.5979 37.4417C37.2744 36.7713 37.761 35.9362 38.0087 35.0203C38.2564 34.1045 38.2565 33.1402 38.0089 32.2243L34.414 19.0619L30.8345 5.89183C30.5243 4.74001 29.8372 3.72272 28.8809 2.99935C27.9246 2.27598 26.7531 1.8874 25.5501 1.8945C24.8357 1.89358 24.1283 2.03374 23.4691 2.30679C22.81 2.57983 22.2124 2.9803 21.7113 3.48479Z" fill="white"/>
</mask>
<g mask="url(#mask1_134_442)">
<path d="M29.1495 -15.1684L-17.2869 11.3982L9.26638 56.9722L55.7028 30.4056L29.1495 -15.1684Z" fill="url(#paint0_linear_134_442)"/>
</g>
<mask id="mask2_134_442" style="mask-type:luminance" maskUnits="userSpaceOnUse" x="38" y="44" width="12" height="12">
<path d="M43.8615 44.8722L38.4254 50.259L43.8615 55.6458L49.2977 50.259L43.8615 44.8722Z" fill="white"/>
</mask>
<g mask="url(#mask2_134_442)">
<path d="M49.2994 44.8728H38.4274V55.646H49.2994V44.8728Z" fill="url(#paint1_linear_134_442)"/>
</g>
<mask id="mask3_134_442" style="mask-type:luminance" maskUnits="userSpaceOnUse" x="-22" y="-33" width="304" height="142">
<path d="M281.819 -32.1782H-21.3939V108.815H281.819V-32.1782Z" fill="white"/>
</mask>
<g mask="url(#mask3_134_442)">
<path d="M43.8455 55.6292L38.4094 61.016L43.8455 66.4028L49.2817 61.016L43.8455 55.6292Z" fill="#5793F9"/>
</g>
<mask id="mask4_134_442" style="mask-type:luminance" maskUnits="userSpaceOnUse" x="38" y="55" width="12" height="12">
<path d="M43.8529 55.6375L38.4167 61.0243L43.8529 66.4111L49.2891 61.0243L43.8529 55.6375Z" fill="white"/>
</mask>
<g mask="url(#mask4_134_442)">
<path d="M49.2892 55.6386H38.4173V66.4118H49.2892V55.6386Z" fill="url(#paint2_linear_134_442)"/>
</g>
<mask id="mask5_134_442" style="mask-type:luminance" maskUnits="userSpaceOnUse" x="49" y="55" width="12" height="12">
<path d="M54.7188 55.6302L49.2826 61.017L54.7188 66.4038L60.155 61.017L54.7188 55.6302Z" fill="white"/>
</mask>
<g mask="url(#mask5_134_442)">
<path d="M60.1533 55.6282H49.2814V66.4014H60.1533V55.6282Z" fill="url(#paint3_linear_134_442)"/>
</g>
<mask id="mask6_134_442" style="mask-type:luminance" maskUnits="userSpaceOnUse" x="18" y="25" width="48" height="42">
<path d="M19.051 32.2829L22.6125 45.4504L26.1715 58.6179C26.4151 59.5263 26.895 60.3554 27.5632 61.0224L32.9992 66.409L38.4351 61.0326L32.9992 55.646L43.8711 44.8728L49.2968 50.262L54.7328 44.8754L60.1533 50.2467L65.5893 44.8576L60.1533 39.4709L54.7174 44.8576L49.2968 39.4888L54.7302 34.1073C54.0579 33.444 53.2209 32.9683 52.3037 32.7282L39.0155 29.199L25.7272 25.6724C24.8024 25.4212 23.8269 25.4171 22.8999 25.6605C21.9729 25.9038 21.1274 26.386 20.4493 27.0579C19.7712 27.7299 19.2846 28.5677 19.039 29.4863C18.7934 30.4048 18.7976 31.3715 19.051 32.288" fill="white"/>
</mask>
<g mask="url(#mask6_134_442)">
<path d="M53.7153 5.10105L0.205139 35.7146L29.9694 86.7997L83.4796 56.1861L53.7153 5.10105Z" fill="url(#paint4_linear_134_442)"/>
</g>
<mask id="mask7_134_442" style="mask-type:luminance" maskUnits="userSpaceOnUse" x="-22" y="-33" width="304" height="142">
<path d="M281.819 -32.1782H-21.3939V108.815H281.819V-32.1782Z" fill="white"/>
</mask>
<g mask="url(#mask7_134_442)">
<path d="M32.9768 44.9202L27.5406 50.307L32.9768 55.6938L38.4129 50.307L32.9768 44.9202Z" fill="#88FCFF"/>
<g opacity="0.33">
<mask id="mask8_134_442" style="mask-type:luminance" maskUnits="userSpaceOnUse" x="18" y="25" width="21" height="15">
<path d="M38.1912 25.479H18.8585V39.0282H38.1912V25.479Z" fill="white"/>
</mask>
<g mask="url(#mask8_134_442)">
<path d="M37.9986 32.2167L37.0331 28.6723L25.7349 25.6698C24.8106 25.4237 23.8371 25.4232 22.9125 25.6683C21.9879 25.9134 21.1448 26.3956 20.468 27.0663C19.7912 27.7369 19.3046 28.5724 19.0572 29.4886C18.8098 30.4048 18.8103 31.3695 19.0587 32.2854L20.0242 35.8476L31.3404 38.8323C32.2646 39.0776 33.2378 39.0775 34.162 38.8321C35.0862 38.5866 35.9289 38.1045 36.6055 37.434C37.2821 36.7636 37.7687 35.9285 38.0164 35.0127C38.2641 34.0969 38.2641 33.1326 38.0166 32.2167" fill="#085DFF"/>
</g>
</g>
</g>
<defs>
<linearGradient id="paint0_linear_134_442" x1="30.8076" y1="40.9699" x2="12.3144" y2="8.6452" gradientUnits="userSpaceOnUse">
<stop stop-color="#6E55F2"/>
<stop offset="0.72" stop-color="#6379F8"/>
<stop offset="1" stop-color="#5E88FA"/>
</linearGradient>
<linearGradient id="paint1_linear_134_442" x1="38.4274" y1="50.4526" x2="49.2994" y2="50.4526" gradientUnits="userSpaceOnUse">
<stop stop-color="#00C976"/>
<stop offset="0.02" stop-color="#02C978"/>
<stop offset="1" stop-color="#6BD2D7"/>
</linearGradient>
<linearGradient id="paint2_linear_134_442" x1="38.4173" y1="61.2184" x2="49.2892" y2="61.2184" gradientUnits="userSpaceOnUse">
<stop stop-color="#00C976"/>
<stop offset="0.02" stop-color="#02C978"/>
<stop offset="1" stop-color="#6BD2D7"/>
</linearGradient>
<linearGradient id="paint3_linear_134_442" x1="49.2814" y1="61.2106" x2="60.1533" y2="61.2106" gradientUnits="userSpaceOnUse">
<stop stop-color="#00C976"/>
<stop offset="0.02" stop-color="#02C978"/>
<stop offset="1" stop-color="#6BD2D7"/>
</linearGradient>
<linearGradient id="paint4_linear_134_442" x1="49.105" y1="57.2012" x2="28.9605" y2="21.99" gradientUnits="userSpaceOnUse">
<stop stop-color="#52FFA3"/>
<stop offset="1" stop-color="#3BD3BD"/>
</linearGradient>
</defs>
</svg>
