<svg width="138" height="41" viewBox="0 0 138 41" fill="none" xmlns="http://www.w3.org/2000/svg">
<g id="Group">
<path id="Vector" d="M136.739 36.1586C136.739 38.3291 134.989 40.0844 132.834 40.0844H4.82476C2.66558 40.0844 0.910693 38.3291 0.90625 36.1586V4.84581C0.90625 2.67522 2.66114 0.915527 4.82476 0.915527H132.825C134.984 0.915527 136.735 2.67522 136.735 4.84581V36.163L136.739 36.1586Z" fill="white"/>
<path id="Vector_2" d="M132.83 41H4.82483C2.16362 41 0.00444276 38.8339 0 36.1586V4.84586C0 2.17059 2.16362 0 4.82483 0H132.825C135.486 0 137.645 2.17059 137.65 4.84586V36.1631C137.65 38.8339 135.482 41.0045 132.825 41.0045L132.83 41Z" fill="#A6A5A5"/>
<path id="Vector_3" d="M136.739 36.1586C136.739 38.3291 134.989 40.0844 132.834 40.0844H4.82476C2.66558 40.0844 0.910693 38.3291 0.90625 36.1586V4.84581C0.90625 2.67522 2.66114 0.915527 4.82476 0.915527H132.825C134.984 0.915527 136.735 2.67522 136.735 4.84581V36.163L136.739 36.1586Z" fill="#010101"/>
<path id="Vector_4" opacity="0.1" d="M132.83 0H64.269L91.1255 41H132.834C135.495 41 137.655 38.8294 137.659 36.1586V4.84586C137.655 2.17059 135.495 0.00446623 132.834 0H132.83Z" fill="white"/>
<g id="Group_2">
<path id="Vector_5" d="M48.6392 12.3938C48.6392 13.1977 48.4393 13.8989 47.9417 14.3991C47.3419 15.0021 46.6444 15.3013 45.7469 15.3013C44.8495 15.3013 44.152 15.0021 43.5522 14.3991C42.9524 13.7962 42.6548 13.095 42.6548 12.1928C42.6548 11.2906 42.9524 10.5894 43.5522 9.98648C44.152 9.38354 44.8495 9.0843 45.7469 9.0843C46.1468 9.0843 46.5466 9.18256 46.942 9.38354C47.3419 9.58452 47.6396 9.7855 47.8395 10.0847L47.3419 10.585C46.942 10.0847 46.4445 9.88376 45.7469 9.88376C45.1472 9.88376 44.5518 10.0847 44.152 10.585C43.6544 10.9869 43.4545 11.5854 43.4545 12.2866C43.4545 12.9878 43.6544 13.5907 44.152 13.9882C44.6496 14.3857 45.1472 14.6894 45.7469 14.6894C46.4445 14.6894 46.942 14.4884 47.4396 13.9882C47.7373 13.689 47.9372 13.287 47.9372 12.7868H45.7425V11.9829H48.6347V12.3848L48.6392 12.3938ZM53.2241 9.88822H50.5318V11.7908H53.0242V12.492H50.5318V14.3946H53.2241V15.1986H49.7365V9.18702H53.2241V9.88822ZM56.5162 15.1986H55.7165V9.88822H54.0238V9.18702H58.2089V9.88822H56.5162V15.1986ZM61.1011 15.1986V9.18702H61.9008V15.1986H61.1011ZM65.2862 15.1986H64.4865V9.88822H62.7938V9.18702H66.8811V9.88822H65.1884V15.1986H65.2862ZM74.7581 14.3946C74.1584 14.9976 73.4609 15.2968 72.5634 15.2968C71.666 15.2968 70.9685 14.9976 70.3687 14.3946C69.7689 13.7917 69.4713 13.0905 69.4713 12.1883C69.4713 11.2862 69.7689 10.585 70.3687 9.98201C70.9685 9.37907 71.666 9.07983 72.5634 9.07983C73.4609 9.07983 74.1584 9.37907 74.7581 9.98201C75.3579 10.585 75.6556 11.2862 75.6556 12.1883C75.6556 13.0905 75.3579 13.7917 74.7581 14.3946ZM70.9685 13.8944C71.3683 14.2964 71.9637 14.5956 72.5634 14.5956C73.1632 14.5956 73.7585 14.3946 74.1584 13.8944C74.5582 13.4925 74.8559 12.894 74.8559 12.1928C74.8559 11.4916 74.656 10.8887 74.1584 10.4912C73.7585 10.0892 73.1632 9.78996 72.5634 9.78996C71.9637 9.78996 71.3683 9.99095 70.9685 10.4912C70.5686 10.8931 70.271 11.4916 70.271 12.1928C70.271 12.894 70.4709 13.4969 70.9685 13.8944ZM76.7529 15.1986V9.18702H77.6504L80.5426 13.8989V9.18702H81.3423V15.1986H80.5426L77.4505 10.2857V15.1986H76.7529Z" fill="white"/>
<path id="Vector_6" d="M69.2755 22.7152C66.8809 22.7152 64.9883 24.5196 64.9883 27.0251C64.9883 29.5307 66.8809 31.335 69.2755 31.335C71.6702 31.335 73.5628 29.5307 73.5628 27.0251C73.5628 24.5196 71.6702 22.7152 69.2755 22.7152ZM69.2755 29.5307C67.9783 29.5307 66.8809 28.4275 66.8809 26.9269C66.8809 25.4262 67.9783 24.3231 69.2755 24.3231C70.5728 24.3231 71.6702 25.3235 71.6702 26.9269C71.6702 28.432 70.5728 29.5307 69.2755 29.5307ZM60.0035 22.7152C57.6089 22.7152 55.7163 24.5196 55.7163 27.0251C55.7163 29.5307 57.6089 31.335 60.0035 31.335C62.3982 31.335 64.2908 29.5307 64.2908 27.0251C64.2908 24.5196 62.3982 22.7152 60.0035 22.7152ZM60.0035 29.5307C58.7062 29.5307 57.6089 28.4275 57.6089 26.9269C57.6089 25.4262 58.7062 24.3231 60.0035 24.3231C61.3008 24.3231 62.3982 25.3235 62.3982 26.9269C62.3982 28.432 61.3008 29.5307 60.0035 29.5307ZM48.9366 24.0194V25.8237H53.2239C53.1261 26.8242 52.7263 27.6281 52.2287 28.1283C51.6289 28.7312 50.6337 29.4324 48.9366 29.4324C46.2443 29.4324 44.2495 27.3288 44.2495 24.6223C44.2495 21.9158 46.342 19.8122 48.9366 19.8122C50.3316 19.8122 51.429 20.4151 52.2287 21.1163L53.526 19.8122C52.4286 18.8117 51.0336 18.0078 49.0388 18.0078C45.449 18.0078 42.3613 21.0136 42.3613 24.6223C42.3613 28.231 45.4535 31.2368 49.0388 31.2368C51.0336 31.2368 52.4286 30.6338 53.6237 29.3342C54.8188 28.1328 55.2187 26.4267 55.2187 25.127C55.2187 24.725 55.2187 24.3231 55.1209 24.0238H48.9411L48.9366 24.0194ZM94.1994 25.4218C93.7996 24.4213 92.8044 22.7152 90.6097 22.7152C88.4149 22.7152 86.6201 24.4169 86.6201 27.0251C86.6201 29.4324 88.4149 31.335 90.8052 31.335C92.6978 31.335 93.8973 30.1336 94.2927 29.4324L92.8977 28.432C92.4001 29.1332 91.8003 29.6334 90.8052 29.6334C89.81 29.6334 89.2102 29.2315 88.7126 28.3293L94.3949 25.922L94.195 25.4218H94.1994ZM88.4149 26.8242C88.4149 25.2208 89.7122 24.3186 90.6097 24.3186C91.3072 24.3186 92.0047 24.7206 92.2046 25.2208L88.4149 26.8242ZM83.7278 30.9331H85.6205V18.4053H83.7278V30.9331ZM80.7379 23.6174C80.2403 23.1172 79.4406 22.617 78.4454 22.617C76.3529 22.617 74.3581 24.5196 74.3581 26.9269C74.3581 29.3342 76.2507 31.1341 78.4454 31.1341C79.4406 31.1341 80.2403 30.6338 80.6401 30.1336H80.7379V30.7366C80.7379 32.3399 79.8404 33.2421 78.4454 33.2421C77.348 33.2421 76.5528 32.4382 76.3529 31.737L74.7579 32.4382C75.2555 33.5414 76.4506 34.9438 78.5476 34.9438C80.6446 34.9438 82.5372 33.6396 82.5372 30.5356V22.9207H80.7423V23.6219L80.7379 23.6174ZM78.5431 29.5307C77.2459 29.5307 76.1485 28.4275 76.1485 26.9269C76.1485 25.4262 77.2459 24.3231 78.5431 24.3231C79.8404 24.3231 80.8356 25.4262 80.8356 26.9269C80.8356 28.4275 79.8404 29.5307 78.5431 29.5307ZM102.867 18.4053H98.3801V30.9331H100.273V26.2212H102.863C104.955 26.2212 106.95 24.7161 106.95 22.3133C106.95 19.9104 104.955 18.4053 102.863 18.4053H102.867ZM102.965 24.4169H100.273V20.1069H102.965C104.36 20.1069 105.16 21.3084 105.16 22.2105C105.062 23.3137 104.262 24.4169 102.965 24.4169ZM114.432 22.6125C113.037 22.6125 111.642 23.2154 111.14 24.5151L112.832 25.2163C113.232 24.5151 113.828 24.3141 114.525 24.3141C115.52 24.3141 116.418 24.9171 116.52 25.9175V26.0158C116.222 25.8148 115.422 25.5155 114.627 25.5155C112.832 25.5155 111.037 26.516 111.037 28.3203C111.037 30.022 112.535 31.1251 114.13 31.1251C115.427 31.1251 116.022 30.5222 116.524 29.9237H116.622V30.9242H118.417V26.114C118.217 23.9077 116.524 22.608 114.427 22.608L114.432 22.6125ZM114.232 29.5262C113.632 29.5262 112.735 29.227 112.735 28.4231C112.735 27.4226 113.832 27.1189 114.729 27.1189C115.529 27.1189 115.924 27.3199 116.422 27.5209C116.222 28.7223 115.227 29.5262 114.227 29.5262H114.232ZM124.699 22.9117L122.606 28.3248H122.509L120.314 22.9117H118.319L121.611 30.5267L119.719 34.7338H121.611L126.694 22.9073H124.699V22.9117ZM107.95 30.9286H109.842V18.4008H107.95V30.9286Z" fill="white"/>
<g id="Group_3">
<path id="Vector_7" d="M14.8164 8.32058C14.5187 8.61981 14.4165 9.1245 14.4165 9.72297V31.871C14.4165 32.474 14.6164 32.9742 14.9141 33.2734L15.0118 33.3717L27.376 20.9421V20.7412L14.8164 8.31165V8.32058Z" fill="url(#paint0_linear_1_546)"/>
<path id="Vector_8" d="M31.3657 25.1582L27.2783 21.0493V20.75L31.3657 16.6411L31.4634 16.7394L36.3504 19.5442C37.7455 20.3481 37.7455 21.6478 36.3504 22.4517L31.3657 25.1582Z" fill="url(#paint1_linear_1_546)"/>
<path id="Vector_9" d="M31.4634 25.0555L27.2783 20.8483L14.8164 33.376C15.314 33.8763 16.0115 33.8763 16.9089 33.4743L31.4634 25.0555Z" fill="url(#paint2_linear_1_546)"/>
<path id="Vector_10" d="M31.4634 16.6367L16.9089 8.31608C16.0115 7.81586 15.314 7.91412 14.8164 8.41434L27.2783 20.8439L31.4634 16.6367Z" fill="url(#paint3_linear_1_546)"/>
</g>
</g>
</g>
<defs>
<linearGradient id="paint0_linear_1_546" x1="20.894" y1="8.24912" x2="20.894" y2="33.1886" gradientUnits="userSpaceOnUse">
<stop stop-color="#267CAF"/>
<stop offset="0.29" stop-color="#4A92B4"/>
<stop offset="0.77" stop-color="#79BCBA"/>
<stop offset="1" stop-color="#88CEBC"/>
</linearGradient>
<linearGradient id="paint1_linear_1_546" x1="33.7292" y1="17.8381" x2="30.6769" y2="24.7042" gradientUnits="userSpaceOnUse">
<stop stop-color="#F48879"/>
<stop offset="0.12" stop-color="#F5907A"/>
<stop offset="0.71" stop-color="#FBB777"/>
<stop offset="1" stop-color="#FDC874"/>
</linearGradient>
<linearGradient id="paint2_linear_1_546" x1="29.2287" y1="23.068" x2="15.555" y2="34.0648" gradientUnits="userSpaceOnUse">
<stop stop-color="#EB413D"/>
<stop offset="0.17" stop-color="#D94452"/>
<stop offset="0.57" stop-color="#AF487A"/>
<stop offset="0.86" stop-color="#954B92"/>
<stop offset="1" stop-color="#894A9C"/>
</linearGradient>
<linearGradient id="paint3_linear_1_546" x1="16.5802" y1="8.92349" x2="29.6524" y2="18.8569" gradientUnits="userSpaceOnUse">
<stop stop-color="#54C0AC"/>
<stop offset="1" stop-color="#DDE79A"/>
</linearGradient>
</defs>
</svg>
