<svg id="Layer_1" data-name="Layer 1" xmlns="http://www.w3.org/2000/svg" xmlns:xlink="http://www.w3.org/1999/xlink" viewBox="0 0 1586.22 552.36"><defs><style>.cls-1{fill:url(#linear-gradient);}.cls-2{fill:#5793f9;}.cls-3{fill:url(#linear-gradient-2);}.cls-4{fill:#88fcff;}.cls-5{fill:#085dff;opacity:0.33;}.cls-6{font-size:82.95px;font-family:Avenir-Medium, Avenir;font-weight:500;letter-spacing:0.02em;}.cls-6,.cls-7{fill:#fff;}</style><linearGradient id="linear-gradient" x1="-40.68" y1="78.19" x2="152.15" y2="78.19" gradientTransform="translate(73.37 121.44)" gradientUnits="userSpaceOnUse"><stop offset="0" stop-color="#6e55f2"/><stop offset="0.8" stop-color="#617df8"/><stop offset="1" stop-color="#5e88fa"/></linearGradient><linearGradient id="linear-gradient-2" x1="136.66" y1="352.73" x2="320.45" y2="246.62" gradientUnits="userSpaceOnUse"><stop offset="0" stop-color="#37fffe"/><stop offset="0.46" stop-color="#3fd6fb"/><stop offset="1" stop-color="#4aa2f7"/></linearGradient></defs><path class="cls-1" d="M224.53,260.64A28,28,0,0,1,190.26,295l-68.36-18.2-68.37-18.2a28,28,0,0,1-12.64-46.87l50-50.1,49.94-50.11A28,28,0,0,1,187.69,124l18.42,68.3Z"/><rect class="cls-2" x="234.92" y="334.51" width="39.53" height="39.53" transform="translate(-175.92 283.86) rotate(-45)"/><rect class="cls-2" x="234.83" y="390.33" width="39.53" height="39.53" transform="translate(-215.42 300.14) rotate(-45)"/><rect class="cls-2" x="234.87" y="390.38" width="39.53" height="39.53" transform="translate(-215.44 300.19) rotate(-45)"/><rect class="cls-2" x="290.74" y="390.33" width="39.53" height="39.53" transform="translate(-199.04 339.68) rotate(-45)"/><path class="cls-3" d="M366.42,326.24l-28-28-27.95,28,0,0-27.91-27.91,27.93-27.93a27.73,27.73,0,0,0-12.48-7.16L229.76,245l-68.34-18.31A28,28,0,0,0,127.1,261l18.31,68.33,18.31,68.34a27.77,27.77,0,0,0,7.15,12.48l-.05.05,28,28,28-28-28-27.95,55.91-55.91,28,27.95,28-27.95,27.86,27.86Z"/><rect class="cls-4" x="178.94" y="334.76" width="39.53" height="39.53" transform="translate(-192.49 244.34) rotate(-45)"/><path class="cls-5" d="M224.53,260.64l-5-18.4-58.15-15.58A28,28,0,0,0,127.1,261l5,18.54L190.26,295A28,28,0,0,0,224.53,260.64Z"/><text class="cls-6" transform="translate(453.65 439.23)">Business hub</text><path class="cls-7" d="M466.69,341.31a17.56,17.56,0,0,1-6.39-14.16,24.43,24.43,0,0,1,2.59-11.49q2.6-4.91,10-10.44l67.86-51.28a14.78,14.78,0,0,0,3.19-3.11,5.63,5.63,0,0,0,.95-3.27q0-4-6-4H475.67a15.16,15.16,0,0,1-8.55-2.34,7.34,7.34,0,0,1-3.54-6.47,7.53,7.53,0,0,1,3.46-6.65,15.09,15.09,0,0,1,8.63-2.33h68.54q11.22,0,17.53,5.1t6.3,14.41a24,24,0,0,1-2.59,11.74q-2.6,4.67-10,10.19l-67.85,51.28a13.79,13.79,0,0,0-3.19,3.19,6.33,6.33,0,0,0-.95,3.54c0,2.41,2.7,3.63,8.11,3.63h65.78a15.15,15.15,0,0,1,8.55,2.33,7.34,7.34,0,0,1,3.54,6.47,7.56,7.56,0,0,1-3.45,6.65,15.15,15.15,0,0,1-8.64,2.33h-73.2Q473.08,346.66,466.69,341.31Z"/><path class="cls-7" d="M614.22,340.53A53.18,53.18,0,0,1,592,318.6q-7.6-14.07-7.6-32.37t7.6-32.37a53.24,53.24,0,0,1,22.18-21.93q14.6-7.86,34.79-7.86t34.79,7.86A53.32,53.32,0,0,1,706,253.86q7.59,14.07,7.59,32.37T706,318.6a53.26,53.26,0,0,1-22.19,21.93q-14.59,7.86-34.79,7.85T614.22,340.53Zm65.35-22.1q10.88-11.82,10.88-32.2,0-20.55-11.31-32.29T647.29,242.2q-18.82,0-29.27,12t-10.44,32q0,20.37,10.87,32.2T649,330.26Q668.69,330.26,679.57,318.43Z"/><path class="cls-7" d="M734.3,345.45a9.64,9.64,0,0,1-3.1-7.6V277.42q0-25,14.32-39.19t39.89-14.16q16.74,0,29,6.39a43.7,43.7,0,0,1,18.74,18.48q6.47,12.09,6.47,28.48v60.43a9.61,9.61,0,0,1-3.11,7.6,13.77,13.77,0,0,1-16.66-.09,9.57,9.57,0,0,1-3.19-7.51V309.71h-62.5v28.14a9.6,9.6,0,0,1-3.19,7.51,13.79,13.79,0,0,1-16.67.09Zm82.36-53.53v-15q0-17.25-7.86-26t-23.39-8.72q-31.26,0-31.25,34.7v15Z"/><path class="cls-7" d="M890.73,340q-8-8.37-14-27.71l-24-76.31a13.57,13.57,0,0,1-.69-4.32q0-7.59,10.71-7.6c3.56,0,6.3.69,8.2,2.08a12.33,12.33,0,0,1,4.23,6.73L899,310.57q3.29,10.55,6,15.2c1.84,3.11,3.73,4.66,5.69,4.66s3.86-1.55,5.7-4.66,3.85-8.17,6-15.2l23.82-77.69a12.27,12.27,0,0,1,4.23-6.73q2.85-2.09,8.2-2.08,10.71,0,10.7,7.6a13.57,13.57,0,0,1-.69,4.32l-24,76.31q-6,19.33-14,27.71a28.14,28.14,0,0,1-40,0Z"/><path class="cls-7" d="M997.77,339.75q-7.26-6.9-7.25-19.34V251.35q0-12.07,7-18.81t19.42-6.74h53.7q5.17,0,7.94,2.33a8.21,8.21,0,0,1,2.76,6.65,7.89,7.89,0,0,1-2.85,6.47c-1.9,1.56-4.51,2.34-7.85,2.34h-49.72a6.93,6.93,0,0,0-5.45,2.24,9.08,9.08,0,0,0-2,6.21v24h44q5.17,0,7.94,2.33a8.24,8.24,0,0,1,2.76,6.65,7.89,7.89,0,0,1-2.85,6.47q-2.85,2.34-7.85,2.34h-44v26.58a9.09,9.09,0,0,0,2,6.22,6.9,6.9,0,0,0,5.45,2.25h53.52c3.45,0,6.1.77,7.94,2.33a8.21,8.21,0,0,1,2.76,6.64,7.91,7.91,0,0,1-2.85,6.48q-2.85,2.32-7.85,2.33h-56.29Q1005,346.66,997.77,339.75Z"/><path class="cls-7" d="M1106.19,251.35q0-12.07,7-18.81t19.43-6.74h30.73q25.73,0,38.85,10t13.12,29.87q0,18.48-11,28.84t-29.44,10.36L1201.15,331a9.75,9.75,0,0,1,3.11,7.07,9.31,9.31,0,0,1-3.63,7.26,12.23,12.23,0,0,1-7.42,2.93q-5,0-9.15-4.49l-37.3-38.15h-17.6V338a9.39,9.39,0,0,1-3.29,7.6,12.41,12.41,0,0,1-8.28,2.76,12,12,0,0,1-8.29-2.76,9.64,9.64,0,0,1-3.11-7.6Zm56.46,36.43q11.4,0,17.78-2.24t9.06-7q2.68-4.74,2.68-12.86,0-11.73-7.16-16.92t-22.36-5.17h-26.07a6.89,6.89,0,0,0-5.44,2.24,9.08,9.08,0,0,0-2,6.21v35.74Z"/><path class="cls-7" d="M1263,342.77a74.17,74.17,0,0,1-25.73-16.14,8.12,8.12,0,0,1-2.59-5.87q0-3.79,3.46-7.25a8.39,8.39,0,0,1,6-2.76q3.45,0,8.29,4a57.13,57.13,0,0,0,19.25,11.48,66.65,66.65,0,0,0,23,4.06q11.38,0,17.78-3.89t6.39-11q0-7.43-6.91-12t-23.48-8.2q-26.07-5.7-37.89-15t-11.83-24a25.07,25.07,0,0,1,6.21-16.66q6.23-7.34,17.35-11.4a74.3,74.3,0,0,1,25.47-4.06q16,0,28.58,5.27t19.07,14.76a12.42,12.42,0,0,1,2.25,6.22c-.12,2.87-1.55,5.35-4.32,7.42a8.85,8.85,0,0,1-5.18,1.56,10.93,10.93,0,0,1-8.8-4.15,33.6,33.6,0,0,0-13.38-9.49,47.41,47.41,0,0,0-18.22-3.46q-12.25,0-19.08,3.72t-6.82,10.27q0,6.56,6.65,10.79t23,8q18.14,4.31,29.18,9.75t16.14,12.86a30.72,30.72,0,0,1,5.09,17.79,27.4,27.4,0,0,1-5.86,17.35q-5.88,7.5-16.58,11.57t-24.86,4.05A89.11,89.11,0,0,1,1263,342.77Z"/><path class="cls-7" d="M1370.35,339.75q-7.26-6.9-7.25-19.34V251.35q0-12.07,7-18.81t19.42-6.74h53.69q5.19,0,8,2.33a8.21,8.21,0,0,1,2.76,6.65,7.89,7.89,0,0,1-2.85,6.47q-2.85,2.34-7.86,2.34h-49.72a6.92,6.92,0,0,0-5.44,2.24,9.08,9.08,0,0,0-2,6.21v24h44c3.46,0,6.1.78,8,2.33a8.24,8.24,0,0,1,2.76,6.65,7.89,7.89,0,0,1-2.85,6.47q-2.85,2.34-7.86,2.34h-44v26.58a9.09,9.09,0,0,0,2,6.22,6.89,6.89,0,0,0,5.44,2.25H1447c3.45,0,6.09.77,7.94,2.33a8.24,8.24,0,0,1,2.76,6.64,7.91,7.91,0,0,1-2.85,6.48q-2.85,2.32-7.85,2.33h-56.29Q1377.6,346.66,1370.35,339.75Z"/></svg>