<svg xmlns="http://www.w3.org/2000/svg" width="293" height="65" fill="none" viewBox="0 0 293 65"><g clip-path="url(#a)"><path fill="url(#b)" d="M37.053 30.394c1.086 4.024-2.592 7.713-6.62 6.64L17.23 33.52 4.026 30.004c-4.028-1.072-5.386-6.102-2.444-9.053l9.646-9.677 9.648-9.68c2.942-2.95 7.976-1.61 9.061 2.413L33.495 17.2l3.558 13.192z"/><path fill="#5793f9" d="m42.878 43.08-5.399 5.4 5.4 5.399 5.398-5.399zm-.018 10.784-5.4 5.399 5.4 5.399 5.399-5.4z"/><path fill="#5793f9" d="m42.869 53.875-5.4 5.399 5.4 5.399 5.399-5.4zm10.789-.01-5.399 5.399 5.4 5.399 5.398-5.4z"/><path fill="url(#c)" d="m64.46 43.063-5.4-5.4-5.402 5.4.008.008-5.39-5.39 5.394-5.396a5.4 5.4 0 0 0-2.41-1.383l-13.2-3.536-13.198-3.537c-4.025-1.078-7.709 2.606-6.631 6.63l3.537 13.2 3.536 13.197c.26.968.75 1.776 1.383 2.411l-.011.012 5.4 5.4 5.4-5.4-5.4-5.401 10.8-10.8 5.4 5.401 5.4-5.4 5.384 5.383z"/><path fill="#88fcff" d="m32.066 43.13-5.399 5.398 5.399 5.4 5.4-5.4z"/><path fill="#085dff" d="m37.053 30.394-.958-3.554-11.23-3.01c-4.025-1.077-7.709 2.607-6.631 6.632l.96 3.581 11.24 2.992c4.027 1.072 7.704-2.617 6.619-6.64" opacity=".33"/><path fill="#fff" d="M75.459 63.46a3.8 3.8 0 0 1-1.063-1.374 3.8 3.8 0 0 1-.34-1.697 5.2 5.2 0 0 1 .57-2.494q.568-1.072 2.2-2.27l14.923-11.147c.268-.187.505-.415.701-.675a1.2 1.2 0 0 0 .21-.711q0-.862-1.328-.862h-13.89a3.36 3.36 0 0 1-1.88-.512 1.6 1.6 0 0 1-.58-.6 1.6 1.6 0 0 1-.196-.807 1.6 1.6 0 0 1 .184-.823c.133-.253.331-.468.574-.623a3.35 3.35 0 0 1 1.898-.512H92.51q2.466 0 3.852 1.108t1.385 3.132a5.14 5.14 0 0 1-.57 2.558q-.57 1.023-2.2 2.213L80.06 58.506a3 3 0 0 0-.704.694c-.142.23-.214.497-.207.767q-.001.79 1.784.788H95.39a3.4 3.4 0 0 1 1.88.512c.243.146.443.353.58.6s.204.526.196.807a1.62 1.62 0 0 1-.759 1.443 3.35 3.35 0 0 1-1.897.512H79.3q-2.427 0-3.834-1.162m32.433-.177a11.6 11.6 0 0 1-4.877-4.763q-1.677-3.048-1.677-7.033 0-3.987 1.669-7.033a11.64 11.64 0 0 1 4.877-4.764q3.207-1.707 7.647-1.707t7.647 1.707a11.64 11.64 0 0 1 4.877 4.764q1.671 3.069 1.672 7.033 0 3.963-1.672 7.033a11.63 11.63 0 0 1-4.877 4.764q-3.207 1.709-7.647 1.706-4.44-.002-7.647-1.706m14.364-4.803q2.392-2.558 2.392-6.994t-2.477-7.016q-2.49-2.558-7.002-2.558-4.142 0-6.433 2.607t-2.298 6.959q0 4.423 2.391 6.995t6.718 2.571q4.33 0 6.717-2.571m12.032 5.879a2.09 2.09 0 0 1-.683-1.65V49.58q0-5.437 3.15-8.514 3.15-3.078 8.768-3.07 3.681 0 6.375 1.386a9.56 9.56 0 0 1 4.119 4.014q1.421 2.625 1.423 6.19v13.129a2.07 2.07 0 0 1-.683 1.65 3.06 3.06 0 0 1-3.663-.018 2.08 2.08 0 0 1-.701-1.632V56.6h-13.741v6.115a2.06 2.06 0 0 1-.701 1.632 3.06 3.06 0 0 1-1.828.617 3.06 3.06 0 0 1-1.835-.599M152.4 52.737v-3.27q0-3.75-1.73-5.646-1.728-1.896-5.14-1.901-6.871 0-6.871 7.54v3.264zm16.282 10.441q-1.747-1.82-3.075-6.02l-5.276-16.581a3 3 0 0 1-.153-.937q0-1.65 2.353-1.65c.777 0 1.385.149 1.812.45.465.373.792.886.93 1.461l5.236 16.886q.727 2.274 1.323 3.298.596 1.023 1.25 1.01.646 0 1.253-1.01t1.328-3.303l5.237-16.886a2.67 2.67 0 0 1 .932-1.46c.417-.303 1.017-.45 1.812-.45q2.353 0 2.353 1.65c.001.317-.049.634-.15.936l-5.291 16.586q-1.329 4.203-3.076 6.02a6.2 6.2 0 0 1-2.015 1.345 6.25 6.25 0 0 1-4.77 0 6.2 6.2 0 0 1-2.016-1.345m23.525-.056q-1.594-1.502-1.594-4.201V43.916q0-2.625 1.537-4.094 1.538-1.469 4.269-1.463h11.804q1.139 0 1.745.511a1.8 1.8 0 0 1 .608 1.446 1.71 1.71 0 0 1-.626 1.407 2.68 2.68 0 0 1-1.727.512h-10.924a1.54 1.54 0 0 0-1.196.486 1.96 1.96 0 0 0-.435 1.35v5.215h9.677q1.141 0 1.747.511a1.77 1.77 0 0 1 .608 1.443 1.7 1.7 0 0 1-.626 1.407 2.68 2.68 0 0 1-1.729.512h-9.677v5.777c-.029.488.126.97.435 1.35a1.53 1.53 0 0 0 1.196.487h11.765q1.137 0 1.748.512a1.79 1.79 0 0 1 .605 1.445 1.72 1.72 0 0 1-.623 1.407 2.7 2.7 0 0 1-1.73.512H196.69q-2.885 0-4.478-1.5m23.833-19.233q0-2.625 1.538-4.094t4.269-1.463h6.756q5.653 0 8.542 2.177t2.881 6.5q0 4.015-2.41 6.266-2.409 2.251-6.471 2.25l5.77 5.664a2.1 2.1 0 0 1 .683 1.535 2 2 0 0 1-.216.878 2 2 0 0 1-.581.698 2.7 2.7 0 0 1-1.633.637q-1.1 0-2.012-.975l-8.198-8.29h-3.87v7.047a2.03 2.03 0 0 1-.722 1.652 2.75 2.75 0 0 1-1.812.599 2.66 2.66 0 0 1-1.812-.599 2.1 2.1 0 0 1-.683-1.652zm12.4 7.915q2.505 0 3.909-.488a3.48 3.48 0 0 0 1.993-1.52q.59-1.023.587-2.794 0-2.559-1.573-3.676-1.575-1.119-4.919-1.123h-5.718a1.54 1.54 0 0 0-1.196.486 1.96 1.96 0 0 0-.435 1.35v7.765zm22.062 11.949a16.4 16.4 0 0 1-5.656-3.508 1.73 1.73 0 0 1-.569-1.28 2.23 2.23 0 0 1 .758-1.576 1.86 1.86 0 0 1 1.328-.598q.762 0 1.812.862a12.6 12.6 0 0 0 4.233 2.494c1.622.587 3.337.886 5.065.883q2.503 0 3.909-.844c.433-.231.794-.576 1.042-.996s.374-.9.364-1.386q0-1.613-1.52-2.607-1.519-.995-5.159-1.791-5.731-1.236-8.332-3.262-2.603-2.026-2.589-5.214a5.4 5.4 0 0 1 1.367-3.62q1.367-1.592 3.813-2.477c1.8-.613 3.695-.911 5.599-.88 2.15-.037 4.287.351 6.282 1.144q2.75 1.143 4.191 3.205c.286.398.457.865.495 1.351a2.1 2.1 0 0 1-.948 1.614 1.97 1.97 0 0 1-1.139.338 2.4 2.4 0 0 1-1.936-.9 7.4 7.4 0 0 0-2.941-2.065 10.5 10.5 0 0 0-4.004-.75q-2.695 0-4.194.806c-.999.54-1.501 1.28-1.501 2.234s.489 1.732 1.462 2.343q1.462.919 5.066 1.745 3.987.936 6.415 2.119 2.429 1.182 3.549 2.793a6.6 6.6 0 0 1 1.121 3.866 5.9 5.9 0 0 1-1.295 3.769 8.13 8.13 0 0 1-3.644 2.512 15.5 15.5 0 0 1-5.465.883 19.8 19.8 0 0 1-6.989-1.218m23.616-.647q-1.597-1.502-1.594-4.201V43.916q0-2.625 1.537-4.094t4.269-1.463h11.804q1.136 0 1.745.511a1.8 1.8 0 0 1 .608 1.446 1.7 1.7 0 0 1-.627 1.407 2.67 2.67 0 0 1-1.726.512h-10.932a1.53 1.53 0 0 0-1.193.486 1.94 1.94 0 0 0-.438 1.35v5.215h9.679q1.136 0 1.745.511a1.77 1.77 0 0 1 .608 1.443 1.7 1.7 0 0 1-.626 1.407 2.68 2.68 0 0 1-1.727.512h-9.679v5.777c-.03.489.126.97.438 1.35a1.51 1.51 0 0 0 1.193.487h11.768q1.137 0 1.745.512a1.8 1.8 0 0 1 .608 1.445 1.71 1.71 0 0 1-.627 1.407 2.68 2.68 0 0 1-1.726.512h-12.374q-2.886 0-4.478-1.5"/></g><defs><linearGradient id="b" x1="0" x2="37.246" y1="18.61" y2="18.61" gradientUnits="userSpaceOnUse"><stop stop-color="#6e55f2"/><stop offset=".8" stop-color="#617df8"/><stop offset="1" stop-color="#5e88fa"/></linearGradient><linearGradient id="c" x1="20.08" x2="55.58" y1="48.182" y2="27.686" gradientUnits="userSpaceOnUse"><stop stop-color="#37fffe"/><stop offset=".46" stop-color="#3fd6fa"/><stop offset="1" stop-color="#4aa2f7"/></linearGradient><clipPath id="a"><path fill="#fff" d="M0 0h293v65H0z"/></clipPath></defs></svg>