<svg id="Layer_1" data-name="Layer 1" xmlns="http://www.w3.org/2000/svg" xmlns:xlink="http://www.w3.org/1999/xlink" viewBox="0 0 1345.75 589.74"><defs><style>.cls-1{fill:url(#linear-gradient);}.cls-2{fill:#5793f9;}.cls-3{fill:url(#linear-gradient-2);}.cls-4{fill:#88fcff;}.cls-5{fill:#085dff;opacity:0.33;}.cls-6{font-size:66.95px;font-family:Almarai-ExtraBold, Almarai;font-weight:800;}.cls-6,.cls-7{fill:#fff;}</style><linearGradient id="linear-gradient" x1="29.79" y1="44.83" x2="222.62" y2="44.83" gradientTransform="translate(73.37 121.44)" gradientUnits="userSpaceOnUse"><stop offset="0" stop-color="#6e55f2"/><stop offset="0.8" stop-color="#617df8"/><stop offset="1" stop-color="#5e88fa"/></linearGradient><linearGradient id="linear-gradient-2" x1="207.13" y1="319.37" x2="390.92" y2="213.26" gradientUnits="userSpaceOnUse"><stop offset="0" stop-color="#37fffe"/><stop offset="0.46" stop-color="#3fd6fb"/><stop offset="1" stop-color="#4aa2f7"/></linearGradient></defs><path class="cls-1" d="M295,227.28a28,28,0,0,1-34.27,34.38l-68.36-18.2L124,225.26a28,28,0,0,1-12.64-46.87l50-50.1,49.94-50.11a28,28,0,0,1,46.91,12.49L276.58,159Z"/><rect class="cls-2" x="305.39" y="301.15" width="39.53" height="39.53" transform="translate(-131.69 323.92) rotate(-45)"/><rect class="cls-2" x="305.3" y="356.98" width="39.53" height="39.53" transform="translate(-171.19 340.2) rotate(-45)"/><rect class="cls-2" x="305.34" y="357.02" width="39.53" height="39.53" transform="translate(-171.21 340.25) rotate(-45)"/><rect class="cls-2" x="361.21" y="356.98" width="39.53" height="39.53" transform="translate(-154.81 379.74) rotate(-45)"/><path class="cls-3" d="M436.89,292.88l-28-28-27.95,28,0,0L353.11,265,381,237.08a27.73,27.73,0,0,0-12.48-7.16l-68.33-18.31L231.89,193.3a28,28,0,0,0-34.32,34.33L215.88,296l18.31,68.34a27.77,27.77,0,0,0,7.15,12.48l-.05.05,28,28,28-28-28-27.95L325.16,293l27.95,27.95,28-27.95,27.86,27.86Z"/><rect class="cls-4" x="249.41" y="301.4" width="39.53" height="39.53" transform="translate(-148.26 284.4) rotate(-45)"/><path class="cls-5" d="M295,227.28l-5-18.4L231.89,193.3a28,28,0,0,0-34.32,34.33l5,18.54,58.19,15.49A28,28,0,0,0,295,227.28Z"/><text class="cls-6" transform="translate(476.57 388.02)">مركز الأعمال</text><path class="cls-7" d="M841.48,188.14a10.15,10.15,0,0,1,10.15,10.15v46.58h8.55v20.39h-5.87l-6.2-6.88h-.34a17.79,17.79,0,0,1-14.25,6.88H778.21V244.87h48.27a3.91,3.91,0,0,0,3.35-1.34,4.28,4.28,0,0,0,1.51-3.35V198.29a10.15,10.15,0,0,1,10.14-10.15Zm-26.23,89.35a10.89,10.89,0,1,1-7.71,3.19A10.47,10.47,0,0,1,815.25,277.49Zm25.48,0a10.9,10.9,0,1,1,0,21.79,10.3,10.3,0,0,1-7.54-3.18,10.91,10.91,0,0,1,0-15.42A10.27,10.27,0,0,1,840.73,277.49Z"/><path class="cls-7" d="M924.83,248.16a36.4,36.4,0,0,1-6-11.57A45.59,45.59,0,0,1,917,223.85q0-14.74,8.55-24.64,10.89-13.08,30.68-13.08,14.07,0,23.46,7.55,10.23,8.72,10.23,23.46v29.67a18.42,18.42,0,0,1-4.53,12.24,17.16,17.16,0,0,1-13.58,6.21H859V244.87Zm44.59-31a14.16,14.16,0,0,0-4.69-11.06,13.62,13.62,0,0,0-8.55-2.85q-10.9,0-15.76,8.55-3.2,5.37-3.19,13.58,0,11.23,7,17.6,5.7,5.19,14.92,5.2h6q4.18,0,4.19-4.19Zm-13.24-65.88a10.87,10.87,0,0,1,10.89,10.9,10.3,10.3,0,0,1-3.18,7.54,10.5,10.5,0,0,1-7.71,3.19,10.88,10.88,0,0,1-10.73-10.73,10.52,10.52,0,0,1,3.18-7.71A10.33,10.33,0,0,1,956.18,151.26Z"/><path class="cls-7" d="M1012.77,262.67a9,9,0,0,1-2.89-7.07V159.16a9,9,0,0,1,2.89-7.07,11.23,11.23,0,0,1,7.72-2.57,11.6,11.6,0,0,1,7.72,2.57,8.77,8.77,0,0,1,3,7.07V255.6a8.76,8.76,0,0,1-3,7.07,11.6,11.6,0,0,1-7.72,2.57A11.23,11.23,0,0,1,1012.77,262.67Z"/><path class="cls-7" d="M1115.11,193.93q-9.06-6.88-22.47-6.88-18.11,0-28.66,11.4-10.23,10.74-10.23,28,0,15.75,9.06,27.32,11.06,13.74,28.83,13.75a52,52,0,0,0,14.08-2c-1.4,15.22-10.8,23.06-27.62,23.59h-17.32a8.24,8.24,0,0,0-8.24,8.23v.52a8.23,8.23,0,0,0,8.24,8.23H1079v0l1.07,0a58.57,58.57,0,0,0,13.08-1.34,45.37,45.37,0,0,0,19.61-9.38q13.74-11.58,13.75-33.2V218.06Q1126.51,202.15,1115.11,193.93Zm-9.06,54.31a33.1,33.1,0,0,1-11.06,2q-9.72,0-15.34-6.28T1074,226.79q0-10.57,4.94-16.6t13.66-6a12.72,12.72,0,0,1,8.55,2.85c3.25,2.57,4.86,6.26,4.86,11.06Z"/><path class="cls-7" d="M1182,180.11a10.5,10.5,0,0,0,7.71-3.19,10.3,10.3,0,0,0,3.18-7.54,10.87,10.87,0,0,0-10.89-10.9,10.21,10.21,0,0,0-7.63,3.19,10.62,10.62,0,0,0-3.1,7.71A10.59,10.59,0,0,0,1182,180.11Z"/><path class="cls-7" d="M1182,195.36h0a10.23,10.23,0,0,0-10.23,10.23v61c0,18.39-9.61,28-27.72,28.79h-16.76a8.23,8.23,0,0,0-8.23,8.23v.52a8.24,8.24,0,0,0,8.23,8.23h18.5a56,56,0,0,0,11.39-1q13.41-2.69,21.8-10.22,13.24-11.56,13.24-32.69V205.59A10.23,10.23,0,0,0,1182,195.36Z"/><path class="cls-7" d="M710,260q-6.64,7-18.62,7H624.93q-11.64,0-18.12-6.73t-6.48-18.7V217.4c0-3.32.74-5.87,2.24-7.64a7.92,7.92,0,0,1,6.4-2.66,7.59,7.59,0,0,1,6.23,2.74,11.59,11.59,0,0,1,2.25,7.56v20.32a6.63,6.63,0,0,0,2.16,5.24,8.68,8.68,0,0,0,6,1.91h23.1V207.08q0-5,2.25-7.64a7.88,7.88,0,0,1,6.39-2.67,7.63,7.63,0,0,1,6.24,2.75,11.65,11.65,0,0,1,2.24,7.56v37.79H691.4a8.69,8.69,0,0,0,6-1.91,6.63,6.63,0,0,0,2.16-5.24V200q0-5,2.24-7.64a7.92,7.92,0,0,1,6.4-2.66,7.62,7.62,0,0,1,6.23,2.74,11.59,11.59,0,0,1,2.25,7.56v40.41Q716.67,253,710,260Z"/><path class="cls-7" d="M607.62,204.81h0A10.23,10.23,0,0,0,597.39,215v42.65c0,18.39-9.61,28-27.72,28.78H552.92a8.24,8.24,0,0,0-8.24,8.23v.52a8.24,8.24,0,0,0,8.24,8.24h18.49a56.92,56.92,0,0,0,11.4-1q13.41-2.68,21.79-10.22,13.24-11.58,13.24-32.69V215A10.22,10.22,0,0,0,607.62,204.81Z"/><path class="cls-7" d="M503.64,227.77h0A10.23,10.23,0,0,1,513.87,238v19.7c0,18.39,9.61,28,27.72,28.78h16.76a8.24,8.24,0,0,1,8.23,8.23v.52a8.24,8.24,0,0,1-8.23,8.24h-18.5a56.75,56.75,0,0,1-11.39-1q-13.41-2.68-21.8-10.22-13.25-11.58-13.24-32.69V238A10.23,10.23,0,0,1,503.64,227.77Z"/><path class="cls-7" d="M770.84,244.87v-46.5a10.23,10.23,0,0,0-10.23-10.23h0a10,10,0,0,0-4.06.86,10.22,10.22,0,0,0-6.37,9.45v61c0,13.62-5.3,22.39-15.39,26.36-.55.2-1.14.37-1.71.55a39.61,39.61,0,0,1-10.62,1.87H705.71a8.23,8.23,0,0,0-8.23,8.23V297a8.23,8.23,0,0,0,8.23,8.24H724.2a52.48,52.48,0,0,0,19.47-3.31h0l.39-.17a43.94,43.94,0,0,0,5.16-2.27c.21-.1.4-.22.6-.33a40.23,40.23,0,0,0,4.51-2.81c.13-.1.27-.16.4-.26.39-.28.72-.6,1.1-.9s1.07-.76,1.55-1.19c.19-.17.35-.36.53-.53.37-.32.7-.67,1-1,.66-.65,1.32-1.29,1.92-2s.92-1.13,1.37-1.71.79-1,1.15-1.5a33.65,33.65,0,0,0,1.79-2.87c.11-.18.23-.36.33-.54a44.16,44.16,0,0,0,5.15-18.61h31.67V244.87Z"/><rect class="cls-7" x="848.6" y="244.87" width="81.38" height="3.28"/></svg>