 <svg xmlns="http://www.w3.org/2000/svg" width="24" height="24" viewBox="0 0 24 24" fill="none">
                                <path
                                    d="M12.4919 0.771802C13.7196 0.753052 14.9384 0.762802 16.1564 0.753052C16.1969 2.2763 16.8149 3.6473 17.7981 4.6628L17.7966 4.6613C18.8549 5.61455 20.2319 6.23255 21.7499 6.33755L21.7709 6.33905V10.1161C20.3369 10.0801 18.9884 9.7493 17.7726 9.1808L17.8341 9.2063C17.2461 8.92355 16.7489 8.6333 16.2764 8.3093L16.3154 8.3348C16.3064 11.0716 16.3244 13.8083 16.2966 16.5353C16.2194 17.9251 15.7574 19.1926 15.0164 20.2508L15.0314 20.2276C13.7924 22.0021 11.7854 23.1668 9.50313 23.2358H9.49263C9.40038 23.2403 9.29163 23.2425 9.18213 23.2425C7.88463 23.2425 6.67188 22.8811 5.63838 22.2533L5.66838 22.2705C3.78738 21.1388 2.48988 19.2023 2.24988 16.9501L2.24688 16.9193C2.22813 16.4506 2.21913 15.9818 2.23788 15.5228C2.60538 11.9386 5.60838 9.1658 9.25863 9.1658C9.66888 9.1658 10.0709 9.20105 10.4616 9.2678L10.4196 9.2618C10.4384 10.6486 10.3821 12.0361 10.3821 13.4228C10.0649 13.3081 9.69888 13.2413 9.31713 13.2413C7.91613 13.2413 6.72438 14.1368 6.28338 15.3871L6.27663 15.4096C6.17688 15.7298 6.11913 16.0981 6.11913 16.4791C6.11913 16.6336 6.12888 16.7866 6.14688 16.9366L6.14538 16.9186C6.39438 18.4531 7.70988 19.6111 9.29613 19.6111C9.34188 19.6111 9.38688 19.6103 9.43188 19.608H9.42513C10.5224 19.5751 11.4749 18.9848 12.0134 18.1126L12.0209 18.0991C12.2211 17.8201 12.3584 17.4825 12.4041 17.1158L12.4049 17.1053C12.4986 15.4276 12.4611 13.7596 12.4701 12.0818C12.4791 8.3048 12.4611 4.5368 12.4889 0.769552L12.4919 0.771802Z"
                                    fill="black"
                                />
                            </svg>