<svg width="75" height="75" viewBox="0 0 75 75" fill="none" xmlns="http://www.w3.org/2000/svg">
<g id="Group 2">
<circle id="Ellipse 6" cx="37.5" cy="37.5" r="37.5" fill="#F1F1F1"/>
<g id="Complete">
<g id="user">
<g id="Group">
<path id="Vector" d="M47.8023 49.1415V46.6689C47.8023 45.3574 47.2813 44.0996 46.3539 43.1723C45.4265 42.2449 44.1687 41.7239 42.8572 41.7239H32.967C31.6555 41.7239 30.3977 42.2449 29.4704 43.1723C28.543 44.0996 28.022 45.3574 28.022 46.6689V49.1415" stroke="#C055F2" stroke-width="3" stroke-linecap="round" stroke-linejoin="round"/>
<path id="Vector_2" d="M37.9124 36.7788C40.6434 36.7788 42.8574 34.5648 42.8574 31.8337C42.8574 29.1027 40.6434 26.8887 37.9124 26.8887C35.1813 26.8887 32.9673 29.1027 32.9673 31.8337C32.9673 34.5648 35.1813 36.7788 37.9124 36.7788Z" stroke="#C055F2" stroke-width="3" stroke-linecap="round" stroke-linejoin="round"/>
</g>
</g>
</g>
</g>
</svg>
