<svg xmlns="http://www.w3.org/2000/svg" width="24" height="24" viewBox="0 0 24 24" fill="none" opacity='0.75'>
                            <g clip-path="url(#clip0_1_1816)">
                                <path
                                    fill-rule="evenodd"
                                    clip-rule="evenodd"
                                    d="M9.58613 15.1033V8.36913C11.9768 9.49405 13.8283 10.5807 16.0181 11.7523C14.212 12.754 11.9768 13.8779 9.58613 15.1033ZM22.9092 5.01992C22.4968 4.4766 21.794 4.05368 21.0457 3.91367C18.8463 3.49601 5.12518 3.49482 2.92698 3.91367C2.32693 4.02615 1.7926 4.29805 1.3336 4.7205C-0.600435 6.51558 0.00559941 16.142 0.471777 17.7014C0.667809 18.3763 0.921228 18.8631 1.24038 19.1826C1.65157 19.605 2.21456 19.8959 2.86123 20.0264C4.67214 20.4009 14.0016 20.6104 21.0074 20.0826C21.6529 19.9701 22.2243 19.6699 22.6749 19.2295C24.4631 17.4416 24.3412 7.27454 22.9092 5.01992Z"
                                    fill="#F1F1F1"
                                />
                            </g>
                            <defs>
                                <clipPath id="clip0_1_1816">
                                    <rect width="24" height="24" fill="white" />
                                </clipPath>
                            </defs>
                        </svg>
                    