<svg width="25" height="25" viewBox="0 0 25 25" fill="none" xmlns="http://www.w3.org/2000/svg">
<path fill-rule="evenodd" clip-rule="evenodd" d="M11.4323 13.0426C11.4386 15.5412 11.4461 19.7865 11.4524 23.0859C15.9699 23.6968 20.4875 24.3266 24.9975 25C24.9975 21.0609 25.0025 17.1391 24.9975 13.3911C20.4762 13.3911 15.9561 13.0426 11.4323 13.0426ZM0 13.0438V21.5271C3.40727 21.9868 6.81454 22.4262 10.2155 22.9285C10.2218 19.6465 10.213 16.3636 10.213 13.0817C6.80827 13.0879 3.40476 13.0326 0 13.0438ZM0 3.55408V12.0135C3.40727 12.0223 6.81454 11.9707 10.2218 11.9745C10.2193 8.70004 10.2193 5.4296 10.2155 2.15515C6.80576 2.58116 3.39599 3.03186 0 3.55408ZM25 11.8396C20.485 11.8571 15.9699 11.9259 11.4524 11.9397C11.4499 8.61152 11.4499 5.28733 11.4524 1.96167C15.9612 1.27329 20.4799 0.6259 24.9975 0C25 3.94783 24.9975 7.89177 25 11.8396Z" fill="white"/>
</svg>
